<svg viewBox="0 0 18 11" xmlns="http://www.w3.org/2000/svg">
<path d="M9.504 0.868L9.492 0.879999C9.54 0.703999 9.632 0.575999 9.768 0.495999C9.912 0.415999 10.1 0.395999 10.332 0.435999C10.564 0.475999 10.728 0.547999 10.824 0.651999C10.928 0.756 10.952 0.9 10.896 1.084L8.736 9.688V9.676C8.696 9.812 8.604 9.916 8.46 9.988C8.324 10.06 8.18 10.096 8.028 10.096C7.852 10.096 7.684 10.068 7.524 10.012C7.372 9.964 7.276 9.86 7.236 9.7L7.248 9.712L5.772 3.856H5.448L3.984 9.7C3.944 9.836 3.844 9.936 3.684 10C3.524 10.064 3.36 10.096 3.192 10.096C2.984 10.096 2.816 10.064 2.688 10C2.568 9.944 2.488 9.84 2.448 9.688L2.46 9.7L0.3 1.084C0.26 0.924 0.296 0.788 0.408 0.676C0.52 0.556 0.68 0.475999 0.888 0.435999C1.336 0.363999 1.608 0.511999 1.704 0.879999L1.692 0.868L2.232 3.04C2.304 3.328 2.376 3.624 2.448 3.928C2.52 4.224 2.6 4.544 2.688 4.888C2.776 5.224 2.872 5.592 2.976 5.992C3.08 6.392 3.196 6.84 3.324 7.336L4.86 0.856C4.9 0.68 4.992 0.564 5.136 0.508C5.28 0.452 5.44 0.424 5.616 0.424C5.776 0.424 5.932 0.456 6.084 0.52C6.236 0.575999 6.332 0.695999 6.372 0.879999L7.956 7.3L9.504 0.868ZM13.4153 9.496C13.4153 9.88 13.1793 10.072 12.7073 10.072C12.2353 10.072 11.9993 9.88 11.9993 9.496V1.192C11.9993 1.008 12.0513 0.844 12.1553 0.7C12.2593 0.548 12.4593 0.472 12.7553 0.472H16.8353C17.1233 0.472 17.2753 0.672 17.2913 1.072C17.3073 1.48 17.1553 1.684 16.8353 1.684H13.4153V9.496ZM16.4873 5.044C16.4873 5.18 16.4593 5.312 16.4033 5.44C16.3553 5.56 16.2833 5.664 16.1873 5.752C16.0993 5.84 15.9953 5.912 15.8753 5.968C15.7553 6.016 15.6233 6.04 15.4793 6.04C15.2073 6.04 14.9753 5.944 14.7833 5.752C14.5913 5.56 14.4953 5.324 14.4953 5.044C14.4953 4.764 14.5913 4.528 14.7833 4.336C14.9753 4.144 15.2073 4.048 15.4793 4.048C15.6233 4.048 15.7553 4.076 15.8753 4.132C15.9953 4.18 16.0993 4.252 16.1873 4.348C16.2833 4.436 16.3553 4.54 16.4033 4.66C16.4593 4.78 16.4873 4.908 16.4873 5.044Z"/>
</svg>
